<mxfile host="65bd71144e">
    <diagram name="DB Collections and relationships" id="icmziCoGJ4KJlRF5kEWQ">
        <mxGraphModel dx="2063" dy="668" grid="1" gridSize="10" guides="1" tooltips="1" connect="1" arrows="1" fold="1" page="1" pageScale="1" pageWidth="827" pageHeight="1169" background="none" math="0" shadow="1">
            <root>
                <mxCell id="0"/>
                <mxCell id="1" parent="0"/>
                <mxCell id="VXtaSYt_-MFgEFt-7SgF-1" value="User" style="rounded=0;whiteSpace=wrap;html=1;strokeWidth=2;fontSize=31;fontStyle=1;fillColor=#dae8fc;strokeColor=#6c8ebf;" parent="1" vertex="1">
                    <mxGeometry x="350" y="240" width="120" height="60" as="geometry"/>
                </mxCell>
                <mxCell id="VXtaSYt_-MFgEFt-7SgF-2" value="Post" style="rounded=0;whiteSpace=wrap;html=1;strokeWidth=2;fontSize=33;fontStyle=1;fillColor=#dae8fc;strokeColor=#6c8ebf;" parent="1" vertex="1">
                    <mxGeometry x="20" y="240" width="120" height="60" as="geometry"/>
                </mxCell>
                <mxCell id="VXtaSYt_-MFgEFt-7SgF-3" value="Comment" style="rounded=0;whiteSpace=wrap;html=1;strokeWidth=2;fontSize=23;fontStyle=1;fillColor=#dae8fc;strokeColor=#6c8ebf;" parent="1" vertex="1">
                    <mxGeometry x="20" y="70" width="120" height="60" as="geometry"/>
                </mxCell>
                <mxCell id="VXtaSYt_-MFgEFt-7SgF-4" value="Reaction" style="rounded=0;whiteSpace=wrap;html=1;strokeWidth=2;fontSize=25;fontStyle=1;fillColor=#dae8fc;strokeColor=#6c8ebf;" parent="1" vertex="1">
                    <mxGeometry x="20" y="400" width="120" height="60" as="geometry"/>
                </mxCell>
                <mxCell id="VXtaSYt_-MFgEFt-7SgF-5" value="Review" style="rounded=0;whiteSpace=wrap;html=1;strokeWidth=2;fontSize=27;fontStyle=1;fillColor=#dae8fc;strokeColor=#6c8ebf;" parent="1" vertex="1">
                    <mxGeometry x="350" y="400" width="120" height="60" as="geometry"/>
                </mxCell>
                <mxCell id="3BG4GZ4Tt4R05Wu69i2b-1" value="Auth" style="rounded=0;whiteSpace=wrap;html=1;strokeWidth=2;fontSize=31;fontStyle=1;fillColor=#dae8fc;strokeColor=#6c8ebf;" parent="1" vertex="1">
                    <mxGeometry x="350" y="70" width="120" height="60" as="geometry"/>
                </mxCell>
                <mxCell id="3BG4GZ4Tt4R05Wu69i2b-2" value="" style="endArrow=classic;html=1;rounded=0;exitX=0.5;exitY=0;exitDx=0;exitDy=0;entryX=0.5;entryY=1;entryDx=0;entryDy=0;" parent="1" source="VXtaSYt_-MFgEFt-7SgF-2" target="VXtaSYt_-MFgEFt-7SgF-3" edge="1">
                    <mxGeometry width="50" height="50" relative="1" as="geometry">
                        <mxPoint x="310" y="300" as="sourcePoint"/>
                        <mxPoint x="360" y="250" as="targetPoint"/>
                    </mxGeometry>
                </mxCell>
                <mxCell id="3BG4GZ4Tt4R05Wu69i2b-3" value="" style="endArrow=classic;html=1;rounded=0;exitX=0.5;exitY=1;exitDx=0;exitDy=0;entryX=0.5;entryY=0;entryDx=0;entryDy=0;" parent="1" source="VXtaSYt_-MFgEFt-7SgF-2" target="VXtaSYt_-MFgEFt-7SgF-4" edge="1">
                    <mxGeometry width="50" height="50" relative="1" as="geometry">
                        <mxPoint x="90" y="250" as="sourcePoint"/>
                        <mxPoint x="90" y="140" as="targetPoint"/>
                    </mxGeometry>
                </mxCell>
                <mxCell id="3BG4GZ4Tt4R05Wu69i2b-5" value="" style="endArrow=classic;html=1;rounded=0;exitX=0.5;exitY=1;exitDx=0;exitDy=0;entryX=0.5;entryY=0;entryDx=0;entryDy=0;" parent="1" source="3BG4GZ4Tt4R05Wu69i2b-1" target="VXtaSYt_-MFgEFt-7SgF-1" edge="1">
                    <mxGeometry width="50" height="50" relative="1" as="geometry">
                        <mxPoint x="90" y="250" as="sourcePoint"/>
                        <mxPoint x="90" y="140" as="targetPoint"/>
                    </mxGeometry>
                </mxCell>
                <mxCell id="3BG4GZ4Tt4R05Wu69i2b-6" value="" style="endArrow=classic;html=1;rounded=0;exitX=0.5;exitY=1;exitDx=0;exitDy=0;entryX=0.5;entryY=0;entryDx=0;entryDy=0;" parent="1" source="VXtaSYt_-MFgEFt-7SgF-1" target="VXtaSYt_-MFgEFt-7SgF-5" edge="1">
                    <mxGeometry width="50" height="50" relative="1" as="geometry">
                        <mxPoint x="420" y="140" as="sourcePoint"/>
                        <mxPoint x="420" y="250" as="targetPoint"/>
                    </mxGeometry>
                </mxCell>
                <mxCell id="3BG4GZ4Tt4R05Wu69i2b-7" value="" style="endArrow=classic;html=1;rounded=0;exitX=0;exitY=0.5;exitDx=0;exitDy=0;entryX=1;entryY=0.5;entryDx=0;entryDy=0;" parent="1" source="VXtaSYt_-MFgEFt-7SgF-1" target="VXtaSYt_-MFgEFt-7SgF-2" edge="1">
                    <mxGeometry width="50" height="50" relative="1" as="geometry">
                        <mxPoint x="90" y="310" as="sourcePoint"/>
                        <mxPoint x="90" y="410" as="targetPoint"/>
                    </mxGeometry>
                </mxCell>
                <mxCell id="3BG4GZ4Tt4R05Wu69i2b-8" value="" style="endArrow=classic;html=1;rounded=0;exitX=0;exitY=0;exitDx=0;exitDy=0;entryX=1;entryY=0.5;entryDx=0;entryDy=0;" parent="1" source="VXtaSYt_-MFgEFt-7SgF-1" target="VXtaSYt_-MFgEFt-7SgF-3" edge="1">
                    <mxGeometry width="50" height="50" relative="1" as="geometry">
                        <mxPoint x="360" y="280" as="sourcePoint"/>
                        <mxPoint x="150" y="280" as="targetPoint"/>
                    </mxGeometry>
                </mxCell>
                <mxCell id="3BG4GZ4Tt4R05Wu69i2b-9" value="" style="endArrow=classic;html=1;rounded=0;exitX=0;exitY=1;exitDx=0;exitDy=0;entryX=1;entryY=0.25;entryDx=0;entryDy=0;" parent="1" source="VXtaSYt_-MFgEFt-7SgF-1" target="VXtaSYt_-MFgEFt-7SgF-4" edge="1">
                    <mxGeometry width="50" height="50" relative="1" as="geometry">
                        <mxPoint x="360" y="280" as="sourcePoint"/>
                        <mxPoint x="150" y="280" as="targetPoint"/>
                    </mxGeometry>
                </mxCell>
                <mxCell id="3BG4GZ4Tt4R05Wu69i2b-18" value="P" style="ellipse;whiteSpace=wrap;html=1;aspect=fixed;fillColor=#fff2cc;strokeColor=#d6b656;" parent="1" vertex="1">
                    <mxGeometry x="414" y="305" width="20" height="20" as="geometry"/>
                </mxCell>
                <mxCell id="3BG4GZ4Tt4R05Wu69i2b-20" value="C" style="ellipse;whiteSpace=wrap;html=1;aspect=fixed;fillColor=#fff2cc;strokeColor=#d6b656;" parent="1" vertex="1">
                    <mxGeometry x="420" y="370" width="20" height="20" as="geometry"/>
                </mxCell>
                <mxCell id="3BG4GZ4Tt4R05Wu69i2b-23" value="P" style="ellipse;whiteSpace=wrap;html=1;aspect=fixed;fillColor=#fff2cc;strokeColor=#d6b656;" parent="1" vertex="1">
                    <mxGeometry x="320" y="240" width="20" height="20" as="geometry"/>
                </mxCell>
                <mxCell id="3BG4GZ4Tt4R05Wu69i2b-24" value="C" style="ellipse;whiteSpace=wrap;html=1;aspect=fixed;fillColor=#fff2cc;strokeColor=#d6b656;" parent="1" vertex="1">
                    <mxGeometry x="140" y="240" width="20" height="20" as="geometry"/>
                </mxCell>
                <mxCell id="3BG4GZ4Tt4R05Wu69i2b-25" value="P" style="ellipse;whiteSpace=wrap;html=1;aspect=fixed;fillColor=#fff2cc;strokeColor=#d6b656;" parent="1" vertex="1">
                    <mxGeometry x="350" y="210" width="20" height="20" as="geometry"/>
                </mxCell>
                <mxCell id="3BG4GZ4Tt4R05Wu69i2b-27" value="C" style="ellipse;whiteSpace=wrap;html=1;aspect=fixed;fillColor=#fff2cc;strokeColor=#d6b656;" parent="1" vertex="1">
                    <mxGeometry x="150" y="80" width="20" height="20" as="geometry"/>
                </mxCell>
                <mxCell id="3BG4GZ4Tt4R05Wu69i2b-29" value="1" style="text;html=1;strokeColor=#82b366;fillColor=#d5e8d4;align=center;verticalAlign=middle;whiteSpace=wrap;rounded=0;fontStyle=1" parent="1" vertex="1">
                    <mxGeometry x="40" y="210" width="20" height="20" as="geometry"/>
                </mxCell>
                <mxCell id="3BG4GZ4Tt4R05Wu69i2b-30" value="Many" style="text;html=1;strokeColor=#82b366;fillColor=#d5e8d4;align=center;verticalAlign=middle;whiteSpace=wrap;rounded=0;fontStyle=1" parent="1" vertex="1">
                    <mxGeometry x="30" y="140" width="40" height="20" as="geometry"/>
                </mxCell>
                <mxCell id="3BG4GZ4Tt4R05Wu69i2b-31" value="1" style="text;html=1;strokeColor=#82b366;fillColor=#d5e8d4;align=center;verticalAlign=middle;whiteSpace=wrap;rounded=0;fontStyle=1" parent="1" vertex="1">
                    <mxGeometry x="40" y="310" width="20" height="20" as="geometry"/>
                </mxCell>
                <mxCell id="3BG4GZ4Tt4R05Wu69i2b-32" value="Many" style="text;html=1;strokeColor=#82b366;fillColor=#d5e8d4;align=center;verticalAlign=middle;whiteSpace=wrap;rounded=0;fontStyle=1" parent="1" vertex="1">
                    <mxGeometry x="30" y="370" width="40" height="20" as="geometry"/>
                </mxCell>
                <mxCell id="3BG4GZ4Tt4R05Wu69i2b-33" value="1" style="text;html=1;strokeColor=#82b366;fillColor=#d5e8d4;align=center;verticalAlign=middle;whiteSpace=wrap;rounded=0;fontStyle=1" parent="1" vertex="1">
                    <mxGeometry x="290" y="240" width="20" height="20" as="geometry"/>
                </mxCell>
                <mxCell id="3BG4GZ4Tt4R05Wu69i2b-34" value="Many" style="text;html=1;strokeColor=#82b366;fillColor=#d5e8d4;align=center;verticalAlign=middle;whiteSpace=wrap;rounded=0;fontStyle=1" parent="1" vertex="1">
                    <mxGeometry x="170" y="240" width="40" height="20" as="geometry"/>
                </mxCell>
                <mxCell id="3BG4GZ4Tt4R05Wu69i2b-35" value="1" style="text;html=1;strokeColor=#82b366;fillColor=#d5e8d4;align=center;verticalAlign=middle;whiteSpace=wrap;rounded=0;fontStyle=1" parent="1" vertex="1">
                    <mxGeometry x="310" y="290" width="20" height="20" as="geometry"/>
                </mxCell>
                <mxCell id="3BG4GZ4Tt4R05Wu69i2b-36" value="1" style="text;html=1;strokeColor=#82b366;fillColor=#d5e8d4;align=center;verticalAlign=middle;whiteSpace=wrap;rounded=0;fontStyle=1" parent="1" vertex="1">
                    <mxGeometry x="150" y="412.5" width="20" height="20" as="geometry"/>
                </mxCell>
                <mxCell id="3BG4GZ4Tt4R05Wu69i2b-39" value="1" style="text;html=1;strokeColor=#82b366;fillColor=#d5e8d4;align=center;verticalAlign=middle;whiteSpace=wrap;rounded=0;fontStyle=1" parent="1" vertex="1">
                    <mxGeometry x="380" y="305" width="20" height="20" as="geometry"/>
                </mxCell>
                <mxCell id="3BG4GZ4Tt4R05Wu69i2b-40" value="Many" style="text;html=1;strokeColor=#82b366;fillColor=#d5e8d4;align=center;verticalAlign=middle;whiteSpace=wrap;rounded=0;fontStyle=1" parent="1" vertex="1">
                    <mxGeometry x="360" y="370" width="40" height="20" as="geometry"/>
                </mxCell>
                <mxCell id="3BG4GZ4Tt4R05Wu69i2b-41" value="1" style="text;html=1;strokeColor=#82b366;fillColor=#d5e8d4;align=center;verticalAlign=middle;whiteSpace=wrap;rounded=0;fontStyle=1" parent="1" vertex="1">
                    <mxGeometry x="420" y="140" width="20" height="20" as="geometry"/>
                </mxCell>
                <mxCell id="3BG4GZ4Tt4R05Wu69i2b-42" value="1" style="text;html=1;strokeColor=#82b366;fillColor=#d5e8d4;align=center;verticalAlign=middle;whiteSpace=wrap;rounded=0;fontStyle=1" parent="1" vertex="1">
                    <mxGeometry x="420" y="210" width="20" height="20" as="geometry"/>
                </mxCell>
                <mxCell id="3BG4GZ4Tt4R05Wu69i2b-43" value="1" style="text;html=1;strokeColor=#82b366;fillColor=#d5e8d4;align=center;verticalAlign=middle;whiteSpace=wrap;rounded=0;fontStyle=1" parent="1" vertex="1">
                    <mxGeometry x="320" y="190" width="20" height="20" as="geometry"/>
                </mxCell>
                <mxCell id="3BG4GZ4Tt4R05Wu69i2b-44" value="Many" style="text;html=1;strokeColor=#82b366;fillColor=#d5e8d4;align=center;verticalAlign=middle;whiteSpace=wrap;rounded=0;fontStyle=1" parent="1" vertex="1">
                    <mxGeometry x="180" y="100" width="40" height="20" as="geometry"/>
                </mxCell>
                <mxCell id="3BG4GZ4Tt4R05Wu69i2b-48" value="Refrencing" style="text;html=1;align=center;verticalAlign=middle;whiteSpace=wrap;rounded=0;fontSize=13;fontStyle=1;fillColor=#e1d5e7;strokeColor=#9673a6;rotation=35;" parent="1" vertex="1">
                    <mxGeometry x="220" y="150" width="90" height="20" as="geometry"/>
                </mxCell>
                <mxCell id="3BG4GZ4Tt4R05Wu69i2b-49" value="Refrencing" style="text;html=1;align=center;verticalAlign=middle;whiteSpace=wrap;rounded=0;fontSize=13;fontStyle=1;fillColor=#e1d5e7;strokeColor=#9673a6;rotation=-30;" parent="1" vertex="1">
                    <mxGeometry x="190" y="380" width="90" height="20" as="geometry"/>
                </mxCell>
                <mxCell id="3BG4GZ4Tt4R05Wu69i2b-50" value="Refrencing" style="text;html=1;align=center;verticalAlign=middle;whiteSpace=wrap;rounded=0;fontSize=13;fontStyle=1;fillColor=#e1d5e7;strokeColor=#9673a6;rotation=0;" parent="1" vertex="1">
                    <mxGeometry x="190" y="280" width="90" height="20" as="geometry"/>
                </mxCell>
                <mxCell id="3BG4GZ4Tt4R05Wu69i2b-51" value="&amp;lt;AuthID&amp;gt;" style="text;html=1;strokeColor=none;fillColor=none;align=center;verticalAlign=middle;whiteSpace=wrap;rounded=0;fontStyle=1" parent="1" vertex="1">
                    <mxGeometry x="350" y="180" width="60" height="30" as="geometry"/>
                </mxCell>
                <mxCell id="3BG4GZ4Tt4R05Wu69i2b-52" value="Mentee: &amp;lt;UserID&amp;gt;&lt;br&gt;Mentor: &amp;lt;UserID&amp;gt;" style="text;html=1;strokeColor=none;fillColor=none;align=center;verticalAlign=middle;whiteSpace=wrap;rounded=0;fontStyle=1" parent="1" vertex="1">
                    <mxGeometry x="355" y="470" width="110" height="30" as="geometry"/>
                </mxCell>
                <mxCell id="3BG4GZ4Tt4R05Wu69i2b-54" value="&amp;lt;UserID&amp;gt;&lt;br&gt;&amp;lt;PostID&amp;gt;" style="text;html=1;strokeColor=none;fillColor=none;align=center;verticalAlign=middle;whiteSpace=wrap;rounded=0;fontStyle=1" parent="1" vertex="1">
                    <mxGeometry x="-50" y="417.5" width="60" height="30" as="geometry"/>
                </mxCell>
                <mxCell id="3BG4GZ4Tt4R05Wu69i2b-55" value="&amp;lt;UserID&amp;gt;" style="text;html=1;strokeColor=none;fillColor=none;align=center;verticalAlign=middle;whiteSpace=wrap;rounded=0;fontStyle=1" parent="1" vertex="1">
                    <mxGeometry x="-50" y="260" width="60" height="30" as="geometry"/>
                </mxCell>
                <mxCell id="3BG4GZ4Tt4R05Wu69i2b-56" value="&amp;lt;UserID&amp;gt;&lt;br&gt;&amp;lt;PostID&amp;gt;" style="text;html=1;strokeColor=none;fillColor=none;align=center;verticalAlign=middle;whiteSpace=wrap;rounded=0;fontStyle=1" parent="1" vertex="1">
                    <mxGeometry x="-50" y="85" width="60" height="30" as="geometry"/>
                </mxCell>
                <mxCell id="2" value="Refrencing" style="text;html=1;align=center;verticalAlign=middle;whiteSpace=wrap;rounded=0;fontSize=13;fontStyle=1;fillColor=#e1d5e7;strokeColor=#9673a6;rotation=0;" parent="1" vertex="1">
                    <mxGeometry x="90" y="340" width="90" height="20" as="geometry"/>
                </mxCell>
                <mxCell id="3" value="Refrencing" style="text;html=1;align=center;verticalAlign=middle;whiteSpace=wrap;rounded=0;fontSize=13;fontStyle=1;fillColor=#e1d5e7;strokeColor=#9673a6;rotation=0;" parent="1" vertex="1">
                    <mxGeometry x="90" y="170" width="90" height="20" as="geometry"/>
                </mxCell>
                <mxCell id="4" value="Ask" style="rounded=0;whiteSpace=wrap;html=1;strokeWidth=2;fontSize=31;fontStyle=1;fillColor=#dae8fc;strokeColor=#6c8ebf;" vertex="1" parent="1">
                    <mxGeometry x="610" y="240" width="120" height="60" as="geometry"/>
                </mxCell>
                <mxCell id="5" value="Answer" style="rounded=0;whiteSpace=wrap;html=1;strokeWidth=2;fontSize=31;fontStyle=1;fillColor=#dae8fc;strokeColor=#6c8ebf;" vertex="1" parent="1">
                    <mxGeometry x="600" y="70" width="140" height="60" as="geometry"/>
                </mxCell>
                <mxCell id="6" value="Follow" style="rounded=0;whiteSpace=wrap;html=1;strokeWidth=2;fontSize=31;fontStyle=1;fillColor=#dae8fc;strokeColor=#6c8ebf;" vertex="1" parent="1">
                    <mxGeometry x="590" y="370" width="140" height="60" as="geometry"/>
                </mxCell>
                <mxCell id="9" value="Refrencing" style="text;html=1;align=center;verticalAlign=middle;whiteSpace=wrap;rounded=0;fontSize=13;fontStyle=1;fillColor=#e1d5e7;strokeColor=#9673a6;rotation=0;" vertex="1" parent="1">
                    <mxGeometry x="315" y="340" width="90" height="20" as="geometry"/>
                </mxCell>
                <mxCell id="18" value="" style="endArrow=classic;html=1;rounded=0;exitX=1;exitY=1;exitDx=0;exitDy=0;entryX=0;entryY=0.5;entryDx=0;entryDy=0;" edge="1" parent="1" source="VXtaSYt_-MFgEFt-7SgF-1" target="6">
                    <mxGeometry width="50" height="50" relative="1" as="geometry">
                        <mxPoint x="1110" y="300" as="sourcePoint"/>
                        <mxPoint x="900" y="300" as="targetPoint"/>
                    </mxGeometry>
                </mxCell>
                <mxCell id="19" value="" style="endArrow=classic;html=1;rounded=0;exitX=1;exitY=0.5;exitDx=0;exitDy=0;entryX=0;entryY=0.5;entryDx=0;entryDy=0;" edge="1" parent="1" source="VXtaSYt_-MFgEFt-7SgF-1" target="4">
                    <mxGeometry width="50" height="50" relative="1" as="geometry">
                        <mxPoint x="1110" y="300" as="sourcePoint"/>
                        <mxPoint x="900" y="300" as="targetPoint"/>
                    </mxGeometry>
                </mxCell>
                <mxCell id="20" value="" style="endArrow=classic;html=1;rounded=0;exitX=1;exitY=0;exitDx=0;exitDy=0;entryX=0;entryY=1;entryDx=0;entryDy=0;" edge="1" parent="1" source="VXtaSYt_-MFgEFt-7SgF-1" target="5">
                    <mxGeometry width="50" height="50" relative="1" as="geometry">
                        <mxPoint x="1110" y="300" as="sourcePoint"/>
                        <mxPoint x="900" y="300" as="targetPoint"/>
                    </mxGeometry>
                </mxCell>
                <mxCell id="21" value="" style="endArrow=classic;html=1;rounded=0;exitX=0.5;exitY=0;exitDx=0;exitDy=0;entryX=0.5;entryY=1;entryDx=0;entryDy=0;" edge="1" parent="1" source="4" target="5">
                    <mxGeometry width="50" height="50" relative="1" as="geometry">
                        <mxPoint x="1110" y="300" as="sourcePoint"/>
                        <mxPoint x="900" y="300" as="targetPoint"/>
                    </mxGeometry>
                </mxCell>
                <mxCell id="22" value="1" style="text;html=1;strokeColor=#82b366;fillColor=#d5e8d4;align=center;verticalAlign=middle;whiteSpace=wrap;rounded=0;fontStyle=1" vertex="1" parent="1">
                    <mxGeometry x="460" y="205" width="20" height="20" as="geometry"/>
                </mxCell>
                <mxCell id="23" value="1" style="text;html=1;strokeColor=#82b366;fillColor=#d5e8d4;align=center;verticalAlign=middle;whiteSpace=wrap;rounded=0;fontStyle=1" vertex="1" parent="1">
                    <mxGeometry x="480" y="240" width="20" height="20" as="geometry"/>
                </mxCell>
                <mxCell id="24" value="1" style="text;html=1;strokeColor=#82b366;fillColor=#d5e8d4;align=center;verticalAlign=middle;whiteSpace=wrap;rounded=0;fontStyle=1" vertex="1" parent="1">
                    <mxGeometry x="450" y="310" width="20" height="20" as="geometry"/>
                </mxCell>
                <mxCell id="25" value="Many" style="text;html=1;strokeColor=#82b366;fillColor=#d5e8d4;align=center;verticalAlign=middle;whiteSpace=wrap;rounded=0;fontStyle=1" vertex="1" parent="1">
                    <mxGeometry x="560" y="240" width="40" height="20" as="geometry"/>
                </mxCell>
                <mxCell id="26" value="Many" style="text;html=1;strokeColor=#82b366;fillColor=#d5e8d4;align=center;verticalAlign=middle;whiteSpace=wrap;rounded=0;fontStyle=1" vertex="1" parent="1">
                    <mxGeometry x="680" y="140" width="40" height="20" as="geometry"/>
                </mxCell>
                <mxCell id="27" value="Many" style="text;html=1;strokeColor=#82b366;fillColor=#d5e8d4;align=center;verticalAlign=middle;whiteSpace=wrap;rounded=0;fontStyle=1" vertex="1" parent="1">
                    <mxGeometry x="550" y="110" width="40" height="20" as="geometry"/>
                </mxCell>
                <mxCell id="28" value="1" style="text;html=1;strokeColor=#82b366;fillColor=#d5e8d4;align=center;verticalAlign=middle;whiteSpace=wrap;rounded=0;fontStyle=1" vertex="1" parent="1">
                    <mxGeometry x="680" y="210" width="20" height="20" as="geometry"/>
                </mxCell>
                <mxCell id="29" value="1" style="text;html=1;strokeColor=#82b366;fillColor=#d5e8d4;align=center;verticalAlign=middle;whiteSpace=wrap;rounded=0;fontStyle=1" vertex="1" parent="1">
                    <mxGeometry x="550" y="397.5" width="20" height="20" as="geometry"/>
                </mxCell>
                <mxCell id="30" value="Mentee: &amp;lt;UserID&amp;gt;&lt;br&gt;Mentor: &amp;lt;UserID&amp;gt;" style="text;html=1;strokeColor=none;fillColor=none;align=center;verticalAlign=middle;whiteSpace=wrap;rounded=0;fontStyle=1" vertex="1" parent="1">
                    <mxGeometry x="600" y="440" width="110" height="30" as="geometry"/>
                </mxCell>
                <mxCell id="31" value="&amp;lt;UserID&amp;gt;" style="text;html=1;strokeColor=none;fillColor=none;align=center;verticalAlign=middle;whiteSpace=wrap;rounded=0;fontStyle=1" vertex="1" parent="1">
                    <mxGeometry x="635" y="300" width="70" height="30" as="geometry"/>
                </mxCell>
                <mxCell id="32" value="&amp;lt;UserID&amp;gt;&lt;br&gt;&amp;lt;AskID&amp;gt;" style="text;html=1;strokeColor=none;fillColor=none;align=center;verticalAlign=middle;whiteSpace=wrap;rounded=0;fontStyle=1" vertex="1" parent="1">
                    <mxGeometry x="750" y="90" width="60" height="30" as="geometry"/>
                </mxCell>
                <mxCell id="33" value="Refrencing" style="text;html=1;align=center;verticalAlign=middle;whiteSpace=wrap;rounded=0;fontSize=13;fontStyle=1;fillColor=#e1d5e7;strokeColor=#9673a6;rotation=40;" vertex="1" parent="1">
                    <mxGeometry x="470" y="350" width="90" height="20" as="geometry"/>
                </mxCell>
                <mxCell id="34" value="Refrencing" style="text;html=1;align=center;verticalAlign=middle;whiteSpace=wrap;rounded=0;fontSize=13;fontStyle=1;fillColor=#e1d5e7;strokeColor=#9673a6;rotation=-40;" vertex="1" parent="1">
                    <mxGeometry x="510" y="185" width="90" height="20" as="geometry"/>
                </mxCell>
                <mxCell id="35" value="Refrencing" style="text;html=1;align=center;verticalAlign=middle;whiteSpace=wrap;rounded=0;fontSize=13;fontStyle=1;fillColor=#e1d5e7;strokeColor=#9673a6;rotation=0;" vertex="1" parent="1">
                    <mxGeometry x="490" y="280" width="90" height="20" as="geometry"/>
                </mxCell>
            </root>
        </mxGraphModel>
    </diagram>
    <diagram id="ABk23Eq3YbK0NPTa6Lt3" name="DB Modeling">
        <mxGraphModel grid="1" page="1" gridSize="10" guides="1" tooltips="1" connect="1" arrows="1" fold="1" pageScale="1" pageWidth="850" pageHeight="1100" math="0" shadow="0">
            <root>
                <mxCell id="0"/>
                <mxCell id="1" parent="0"/>
                <mxCell id="oW0wbC5lxCzP3JMt8ABT-1" value="User" style="swimlane;fontStyle=1;childLayout=stackLayout;horizontal=1;startSize=30;horizontalStack=0;resizeParent=1;resizeParentMax=0;resizeLast=0;collapsible=1;marginBottom=0;whiteSpace=wrap;html=1;fillColor=#dae8fc;strokeColor=#6c8ebf;fontSize=18;" vertex="1" parent="1">
                    <mxGeometry x="390" y="220" width="140" height="330" as="geometry"/>
                </mxCell>
                <mxCell id="oW0wbC5lxCzP3JMt8ABT-2" value="Auth_ID" style="text;strokeColor=none;fillColor=default;align=left;verticalAlign=middle;spacingLeft=4;spacingRight=4;overflow=hidden;points=[[0,0.5],[1,0.5]];portConstraint=eastwest;rotatable=0;whiteSpace=wrap;html=1;rounded=0;glass=0;shadow=0;fontStyle=0;fontSize=15;fontFamily=Times New Roman;" vertex="1" parent="oW0wbC5lxCzP3JMt8ABT-1">
                    <mxGeometry y="30" width="140" height="30" as="geometry"/>
                </mxCell>
                <mxCell id="oW0wbC5lxCzP3JMt8ABT-3" value="User_ID" style="text;strokeColor=none;fillColor=default;align=left;verticalAlign=middle;spacingLeft=4;spacingRight=4;overflow=hidden;points=[[0,0.5],[1,0.5]];portConstraint=eastwest;rotatable=0;whiteSpace=wrap;html=1;fontStyle=0;fontSize=15;fontFamily=Times New Roman;" vertex="1" parent="oW0wbC5lxCzP3JMt8ABT-1">
                    <mxGeometry y="60" width="140" height="30" as="geometry"/>
                </mxCell>
                <mxCell id="oW0wbC5lxCzP3JMt8ABT-4" value="firstName" style="text;strokeColor=none;fillColor=default;align=left;verticalAlign=middle;spacingLeft=4;spacingRight=4;overflow=hidden;points=[[0,0.5],[1,0.5]];portConstraint=eastwest;rotatable=0;whiteSpace=wrap;html=1;fontStyle=0;fontSize=15;fontFamily=Times New Roman;" vertex="1" parent="oW0wbC5lxCzP3JMt8ABT-1">
                    <mxGeometry y="90" width="140" height="30" as="geometry"/>
                </mxCell>
                <mxCell id="oW0wbC5lxCzP3JMt8ABT-5" value="lastName" style="text;strokeColor=none;fillColor=default;align=left;verticalAlign=middle;spacingLeft=4;spacingRight=4;overflow=hidden;points=[[0,0.5],[1,0.5]];portConstraint=eastwest;rotatable=0;whiteSpace=wrap;html=1;fontStyle=0;fontSize=15;fontFamily=Times New Roman;" vertex="1" parent="oW0wbC5lxCzP3JMt8ABT-1">
                    <mxGeometry y="120" width="140" height="30" as="geometry"/>
                </mxCell>
                <mxCell id="oW0wbC5lxCzP3JMt8ABT-6" value="role" style="text;strokeColor=none;fillColor=default;align=left;verticalAlign=middle;spacingLeft=4;spacingRight=4;overflow=hidden;points=[[0,0.5],[1,0.5]];portConstraint=eastwest;rotatable=0;whiteSpace=wrap;html=1;fontStyle=0;fontSize=15;fontFamily=Times New Roman;" vertex="1" parent="oW0wbC5lxCzP3JMt8ABT-1">
                    <mxGeometry y="150" width="140" height="30" as="geometry"/>
                </mxCell>
                <mxCell id="oW0wbC5lxCzP3JMt8ABT-7" value="photo" style="text;strokeColor=none;fillColor=default;align=left;verticalAlign=middle;spacingLeft=4;spacingRight=4;overflow=hidden;points=[[0,0.5],[1,0.5]];portConstraint=eastwest;rotatable=0;whiteSpace=wrap;html=1;fontStyle=0;fontSize=15;fontFamily=Times New Roman;" vertex="1" parent="oW0wbC5lxCzP3JMt8ABT-1">
                    <mxGeometry y="180" width="140" height="30" as="geometry"/>
                </mxCell>
                <mxCell id="oW0wbC5lxCzP3JMt8ABT-8" value="country" style="text;strokeColor=none;fillColor=default;align=left;verticalAlign=middle;spacingLeft=4;spacingRight=4;overflow=hidden;points=[[0,0.5],[1,0.5]];portConstraint=eastwest;rotatable=0;whiteSpace=wrap;html=1;fontStyle=0;fontSize=15;fontFamily=Times New Roman;" vertex="1" parent="oW0wbC5lxCzP3JMt8ABT-1">
                    <mxGeometry y="210" width="140" height="30" as="geometry"/>
                </mxCell>
                <mxCell id="oW0wbC5lxCzP3JMt8ABT-9" value="companyWorkingFor" style="text;strokeColor=none;fillColor=default;align=left;verticalAlign=middle;spacingLeft=4;spacingRight=4;overflow=hidden;points=[[0,0.5],[1,0.5]];portConstraint=eastwest;rotatable=0;whiteSpace=wrap;html=1;fontStyle=0;fontSize=15;fontFamily=Times New Roman;" vertex="1" parent="oW0wbC5lxCzP3JMt8ABT-1">
                    <mxGeometry y="240" width="140" height="30" as="geometry"/>
                </mxCell>
                <mxCell id="oW0wbC5lxCzP3JMt8ABT-10" value="school" style="text;strokeColor=none;fillColor=default;align=left;verticalAlign=middle;spacingLeft=4;spacingRight=4;overflow=hidden;points=[[0,0.5],[1,0.5]];portConstraint=eastwest;rotatable=0;whiteSpace=wrap;html=1;fontStyle=0;fontSize=15;fontFamily=Times New Roman;" vertex="1" parent="oW0wbC5lxCzP3JMt8ABT-1">
                    <mxGeometry y="270" width="140" height="30" as="geometry"/>
                </mxCell>
                <mxCell id="oW0wbC5lxCzP3JMt8ABT-11" value="interests" style="text;strokeColor=none;fillColor=default;align=left;verticalAlign=middle;spacingLeft=4;spacingRight=4;overflow=hidden;points=[[0,0.5],[1,0.5]];portConstraint=eastwest;rotatable=0;whiteSpace=wrap;html=1;fontStyle=0;fontSize=15;fontFamily=Times New Roman;" vertex="1" parent="oW0wbC5lxCzP3JMt8ABT-1">
                    <mxGeometry y="300" width="140" height="30" as="geometry"/>
                </mxCell>
                <mxCell id="oW0wbC5lxCzP3JMt8ABT-12" value="Auth" style="swimlane;fontStyle=1;childLayout=stackLayout;horizontal=1;startSize=30;horizontalStack=0;resizeParent=1;resizeParentMax=0;resizeLast=0;collapsible=1;marginBottom=0;whiteSpace=wrap;html=1;fillColor=#dae8fc;strokeColor=#6c8ebf;fontSize=18;" vertex="1" parent="1">
                    <mxGeometry x="390" y="40" width="140" height="150" as="geometry"/>
                </mxCell>
                <mxCell id="oW0wbC5lxCzP3JMt8ABT-13" value="Auth_ID" style="text;strokeColor=none;fillColor=default;align=left;verticalAlign=middle;spacingLeft=4;spacingRight=4;overflow=hidden;points=[[0,0.5],[1,0.5]];portConstraint=eastwest;rotatable=0;whiteSpace=wrap;html=1;rounded=0;glass=0;shadow=0;fontStyle=0;fontSize=15;fontFamily=Times New Roman;" vertex="1" parent="oW0wbC5lxCzP3JMt8ABT-12">
                    <mxGeometry y="30" width="140" height="30" as="geometry"/>
                </mxCell>
                <mxCell id="oW0wbC5lxCzP3JMt8ABT-14" value="email" style="text;strokeColor=none;fillColor=default;align=left;verticalAlign=middle;spacingLeft=4;spacingRight=4;overflow=hidden;points=[[0,0.5],[1,0.5]];portConstraint=eastwest;rotatable=0;whiteSpace=wrap;html=1;fontStyle=0;fontSize=15;fontFamily=Times New Roman;" vertex="1" parent="oW0wbC5lxCzP3JMt8ABT-12">
                    <mxGeometry y="60" width="140" height="30" as="geometry"/>
                </mxCell>
                <mxCell id="oW0wbC5lxCzP3JMt8ABT-15" value="password" style="text;strokeColor=none;fillColor=default;align=left;verticalAlign=middle;spacingLeft=4;spacingRight=4;overflow=hidden;points=[[0,0.5],[1,0.5]];portConstraint=eastwest;rotatable=0;whiteSpace=wrap;html=1;fontStyle=0;fontSize=15;fontFamily=Times New Roman;" vertex="1" parent="oW0wbC5lxCzP3JMt8ABT-12">
                    <mxGeometry y="90" width="140" height="30" as="geometry"/>
                </mxCell>
                <mxCell id="oW0wbC5lxCzP3JMt8ABT-16" value="username" style="text;strokeColor=none;fillColor=default;align=left;verticalAlign=middle;spacingLeft=4;spacingRight=4;overflow=hidden;points=[[0,0.5],[1,0.5]];portConstraint=eastwest;rotatable=0;whiteSpace=wrap;html=1;fontStyle=0;fontSize=15;fontFamily=Times New Roman;" vertex="1" parent="oW0wbC5lxCzP3JMt8ABT-12">
                    <mxGeometry y="120" width="140" height="30" as="geometry"/>
                </mxCell>
                <mxCell id="oW0wbC5lxCzP3JMt8ABT-17" value="Review" style="swimlane;fontStyle=1;childLayout=stackLayout;horizontal=1;startSize=30;horizontalStack=0;resizeParent=1;resizeParentMax=0;resizeLast=0;collapsible=1;marginBottom=0;whiteSpace=wrap;html=1;fillColor=#dae8fc;strokeColor=#6c8ebf;fontSize=18;" vertex="1" parent="1">
                    <mxGeometry x="590" y="270" width="140" height="180" as="geometry"/>
                </mxCell>
                <mxCell id="oW0wbC5lxCzP3JMt8ABT-18" value="Review_ID" style="text;strokeColor=none;fillColor=default;align=left;verticalAlign=middle;spacingLeft=4;spacingRight=4;overflow=hidden;points=[[0,0.5],[1,0.5]];portConstraint=eastwest;rotatable=0;whiteSpace=wrap;html=1;rounded=0;glass=0;shadow=0;fontStyle=0;fontSize=15;fontFamily=Times New Roman;" vertex="1" parent="oW0wbC5lxCzP3JMt8ABT-17">
                    <mxGeometry y="30" width="140" height="30" as="geometry"/>
                </mxCell>
                <mxCell id="oW0wbC5lxCzP3JMt8ABT-19" value="mentor_ID" style="text;strokeColor=none;fillColor=default;align=left;verticalAlign=middle;spacingLeft=4;spacingRight=4;overflow=hidden;points=[[0,0.5],[1,0.5]];portConstraint=eastwest;rotatable=0;whiteSpace=wrap;html=1;fontStyle=0;fontSize=15;fontFamily=Times New Roman;" vertex="1" parent="oW0wbC5lxCzP3JMt8ABT-17">
                    <mxGeometry y="60" width="140" height="30" as="geometry"/>
                </mxCell>
                <mxCell id="oW0wbC5lxCzP3JMt8ABT-20" value="mentee_ID" style="text;strokeColor=none;fillColor=default;align=left;verticalAlign=middle;spacingLeft=4;spacingRight=4;overflow=hidden;points=[[0,0.5],[1,0.5]];portConstraint=eastwest;rotatable=0;whiteSpace=wrap;html=1;fontStyle=0;fontSize=15;fontFamily=Times New Roman;" vertex="1" parent="oW0wbC5lxCzP3JMt8ABT-17">
                    <mxGeometry y="90" width="140" height="30" as="geometry"/>
                </mxCell>
                <mxCell id="oW0wbC5lxCzP3JMt8ABT-21" value="review" style="text;strokeColor=none;fillColor=default;align=left;verticalAlign=middle;spacingLeft=4;spacingRight=4;overflow=hidden;points=[[0,0.5],[1,0.5]];portConstraint=eastwest;rotatable=0;whiteSpace=wrap;html=1;fontStyle=0;fontSize=15;fontFamily=Times New Roman;" vertex="1" parent="oW0wbC5lxCzP3JMt8ABT-17">
                    <mxGeometry y="120" width="140" height="30" as="geometry"/>
                </mxCell>
                <mxCell id="oW0wbC5lxCzP3JMt8ABT-22" value="rating" style="text;strokeColor=none;fillColor=default;align=left;verticalAlign=middle;spacingLeft=4;spacingRight=4;overflow=hidden;points=[[0,0.5],[1,0.5]];portConstraint=eastwest;rotatable=0;whiteSpace=wrap;html=1;fontStyle=0;fontSize=15;fontFamily=Times New Roman;" vertex="1" parent="oW0wbC5lxCzP3JMt8ABT-17">
                    <mxGeometry y="150" width="140" height="30" as="geometry"/>
                </mxCell>
                <mxCell id="oW0wbC5lxCzP3JMt8ABT-23" value="Comment" style="swimlane;fontStyle=1;childLayout=stackLayout;horizontal=1;startSize=30;horizontalStack=0;resizeParent=1;resizeParentMax=0;resizeLast=0;collapsible=1;marginBottom=0;whiteSpace=wrap;html=1;fillColor=#dae8fc;strokeColor=#6c8ebf;fontSize=18;" vertex="1" parent="1">
                    <mxGeometry x="140" y="40" width="140" height="150" as="geometry"/>
                </mxCell>
                <mxCell id="oW0wbC5lxCzP3JMt8ABT-24" value="Comment_ID" style="text;strokeColor=none;fillColor=default;align=left;verticalAlign=middle;spacingLeft=4;spacingRight=4;overflow=hidden;points=[[0,0.5],[1,0.5]];portConstraint=eastwest;rotatable=0;whiteSpace=wrap;html=1;fontStyle=0;fontSize=15;fontFamily=Times New Roman;" vertex="1" parent="oW0wbC5lxCzP3JMt8ABT-23">
                    <mxGeometry y="30" width="140" height="30" as="geometry"/>
                </mxCell>
                <mxCell id="oW0wbC5lxCzP3JMt8ABT-25" value="User_ID" style="text;strokeColor=none;fillColor=default;align=left;verticalAlign=middle;spacingLeft=4;spacingRight=4;overflow=hidden;points=[[0,0.5],[1,0.5]];portConstraint=eastwest;rotatable=0;whiteSpace=wrap;html=1;rounded=0;glass=0;shadow=0;fontStyle=0;fontSize=15;fontFamily=Times New Roman;" vertex="1" parent="oW0wbC5lxCzP3JMt8ABT-23">
                    <mxGeometry y="60" width="140" height="30" as="geometry"/>
                </mxCell>
                <mxCell id="oW0wbC5lxCzP3JMt8ABT-26" value="Post_ID" style="text;strokeColor=none;fillColor=default;align=left;verticalAlign=middle;spacingLeft=4;spacingRight=4;overflow=hidden;points=[[0,0.5],[1,0.5]];portConstraint=eastwest;rotatable=0;whiteSpace=wrap;html=1;fontStyle=0;fontSize=15;fontFamily=Times New Roman;" vertex="1" parent="oW0wbC5lxCzP3JMt8ABT-23">
                    <mxGeometry y="90" width="140" height="30" as="geometry"/>
                </mxCell>
                <mxCell id="oW0wbC5lxCzP3JMt8ABT-27" value="comment" style="text;strokeColor=none;fillColor=default;align=left;verticalAlign=middle;spacingLeft=4;spacingRight=4;overflow=hidden;points=[[0,0.5],[1,0.5]];portConstraint=eastwest;rotatable=0;whiteSpace=wrap;html=1;fontStyle=0;fontSize=15;fontFamily=Times New Roman;" vertex="1" parent="oW0wbC5lxCzP3JMt8ABT-23">
                    <mxGeometry y="120" width="140" height="30" as="geometry"/>
                </mxCell>
                <mxCell id="oW0wbC5lxCzP3JMt8ABT-28" value="Post" style="swimlane;fontStyle=1;childLayout=stackLayout;horizontal=1;startSize=30;horizontalStack=0;resizeParent=1;resizeParentMax=0;resizeLast=0;collapsible=1;marginBottom=0;whiteSpace=wrap;html=1;fillColor=#dae8fc;strokeColor=#6c8ebf;fontSize=18;" vertex="1" parent="1">
                    <mxGeometry x="140" y="260" width="140" height="210" as="geometry"/>
                </mxCell>
                <mxCell id="oW0wbC5lxCzP3JMt8ABT-29" value="Post_ID" style="text;strokeColor=none;fillColor=default;align=left;verticalAlign=middle;spacingLeft=4;spacingRight=4;overflow=hidden;points=[[0,0.5],[1,0.5]];portConstraint=eastwest;rotatable=0;whiteSpace=wrap;html=1;fontStyle=0;fontSize=15;fontFamily=Times New Roman;" vertex="1" parent="oW0wbC5lxCzP3JMt8ABT-28">
                    <mxGeometry y="30" width="140" height="30" as="geometry"/>
                </mxCell>
                <mxCell id="oW0wbC5lxCzP3JMt8ABT-30" value="User_ID" style="text;strokeColor=none;fillColor=default;align=left;verticalAlign=middle;spacingLeft=4;spacingRight=4;overflow=hidden;points=[[0,0.5],[1,0.5]];portConstraint=eastwest;rotatable=0;whiteSpace=wrap;html=1;rounded=0;glass=0;shadow=0;fontStyle=0;fontSize=15;fontFamily=Times New Roman;" vertex="1" parent="oW0wbC5lxCzP3JMt8ABT-28">
                    <mxGeometry y="60" width="140" height="30" as="geometry"/>
                </mxCell>
                <mxCell id="oW0wbC5lxCzP3JMt8ABT-31" value="content" style="text;strokeColor=none;fillColor=default;align=left;verticalAlign=middle;spacingLeft=4;spacingRight=4;overflow=hidden;points=[[0,0.5],[1,0.5]];portConstraint=eastwest;rotatable=0;whiteSpace=wrap;html=1;fontStyle=0;fontSize=15;fontFamily=Times New Roman;" vertex="1" parent="oW0wbC5lxCzP3JMt8ABT-28">
                    <mxGeometry y="90" width="140" height="30" as="geometry"/>
                </mxCell>
                <mxCell id="oW0wbC5lxCzP3JMt8ABT-32" value="bgColor" style="text;strokeColor=none;fillColor=default;align=left;verticalAlign=middle;spacingLeft=4;spacingRight=4;overflow=hidden;points=[[0,0.5],[1,0.5]];portConstraint=eastwest;rotatable=0;whiteSpace=wrap;html=1;fontStyle=0;fontSize=15;fontFamily=Times New Roman;" vertex="1" parent="oW0wbC5lxCzP3JMt8ABT-28">
                    <mxGeometry y="120" width="140" height="30" as="geometry"/>
                </mxCell>
                <mxCell id="oW0wbC5lxCzP3JMt8ABT-33" value="privacy" style="text;strokeColor=none;fillColor=default;align=left;verticalAlign=middle;spacingLeft=4;spacingRight=4;overflow=hidden;points=[[0,0.5],[1,0.5]];portConstraint=eastwest;rotatable=0;whiteSpace=wrap;html=1;fontStyle=0;fontSize=15;fontFamily=Times New Roman;" vertex="1" parent="oW0wbC5lxCzP3JMt8ABT-28">
                    <mxGeometry y="150" width="140" height="30" as="geometry"/>
                </mxCell>
                <mxCell id="oW0wbC5lxCzP3JMt8ABT-34" value="image" style="text;strokeColor=none;fillColor=default;align=left;verticalAlign=middle;spacingLeft=4;spacingRight=4;overflow=hidden;points=[[0,0.5],[1,0.5]];portConstraint=eastwest;rotatable=0;whiteSpace=wrap;html=1;fontStyle=0;fontSize=15;fontFamily=Times New Roman;" vertex="1" parent="oW0wbC5lxCzP3JMt8ABT-28">
                    <mxGeometry y="180" width="140" height="30" as="geometry"/>
                </mxCell>
                <mxCell id="oW0wbC5lxCzP3JMt8ABT-35" value="Reaction" style="swimlane;fontStyle=1;childLayout=stackLayout;horizontal=1;startSize=30;horizontalStack=0;resizeParent=1;resizeParentMax=0;resizeLast=0;collapsible=1;marginBottom=0;whiteSpace=wrap;html=1;fillColor=#dae8fc;strokeColor=#6c8ebf;fontSize=18;" vertex="1" parent="1">
                    <mxGeometry x="140" y="520" width="140" height="120" as="geometry"/>
                </mxCell>
                <mxCell id="oW0wbC5lxCzP3JMt8ABT-36" value="User_ID" style="text;strokeColor=none;fillColor=default;align=left;verticalAlign=middle;spacingLeft=4;spacingRight=4;overflow=hidden;points=[[0,0.5],[1,0.5]];portConstraint=eastwest;rotatable=0;whiteSpace=wrap;html=1;rounded=0;glass=0;shadow=0;fontStyle=0;fontSize=15;fontFamily=Times New Roman;" vertex="1" parent="oW0wbC5lxCzP3JMt8ABT-35">
                    <mxGeometry y="30" width="140" height="30" as="geometry"/>
                </mxCell>
                <mxCell id="oW0wbC5lxCzP3JMt8ABT-37" value="Post_ID" style="text;strokeColor=none;fillColor=default;align=left;verticalAlign=middle;spacingLeft=4;spacingRight=4;overflow=hidden;points=[[0,0.5],[1,0.5]];portConstraint=eastwest;rotatable=0;whiteSpace=wrap;html=1;fontStyle=0;fontSize=15;fontFamily=Times New Roman;" vertex="1" parent="oW0wbC5lxCzP3JMt8ABT-35">
                    <mxGeometry y="60" width="140" height="30" as="geometry"/>
                </mxCell>
                <mxCell id="oW0wbC5lxCzP3JMt8ABT-38" value="reaction" style="text;strokeColor=none;fillColor=default;align=left;verticalAlign=middle;spacingLeft=4;spacingRight=4;overflow=hidden;points=[[0,0.5],[1,0.5]];portConstraint=eastwest;rotatable=0;whiteSpace=wrap;html=1;fontStyle=0;fontSize=15;fontFamily=Times New Roman;" vertex="1" parent="oW0wbC5lxCzP3JMt8ABT-35">
                    <mxGeometry y="90" width="140" height="30" as="geometry"/>
                </mxCell>
                <mxCell id="oW0wbC5lxCzP3JMt8ABT-39" value="Reservation" style="swimlane;fontStyle=1;childLayout=stackLayout;horizontal=1;startSize=30;horizontalStack=0;resizeParent=1;resizeParentMax=0;resizeLast=0;collapsible=1;marginBottom=0;whiteSpace=wrap;html=1;fillColor=#dae8fc;strokeColor=#6c8ebf;fontSize=18;" vertex="1" parent="1">
                    <mxGeometry x="390" y="590" width="140" height="180" as="geometry"/>
                </mxCell>
                <mxCell id="oW0wbC5lxCzP3JMt8ABT-40" value="Reservation_ID" style="text;strokeColor=none;fillColor=default;align=left;verticalAlign=middle;spacingLeft=4;spacingRight=4;overflow=hidden;points=[[0,0.5],[1,0.5]];portConstraint=eastwest;rotatable=0;whiteSpace=wrap;html=1;rounded=0;glass=0;shadow=0;fontStyle=0;fontSize=15;fontFamily=Times New Roman;" vertex="1" parent="oW0wbC5lxCzP3JMt8ABT-39">
                    <mxGeometry y="30" width="140" height="30" as="geometry"/>
                </mxCell>
                <mxCell id="oW0wbC5lxCzP3JMt8ABT-41" value="mentor_ID" style="text;strokeColor=none;fillColor=default;align=left;verticalAlign=middle;spacingLeft=4;spacingRight=4;overflow=hidden;points=[[0,0.5],[1,0.5]];portConstraint=eastwest;rotatable=0;whiteSpace=wrap;html=1;fontStyle=0;fontSize=15;fontFamily=Times New Roman;" vertex="1" parent="oW0wbC5lxCzP3JMt8ABT-39">
                    <mxGeometry y="60" width="140" height="30" as="geometry"/>
                </mxCell>
                <mxCell id="oW0wbC5lxCzP3JMt8ABT-42" value="mentee_ID" style="text;strokeColor=none;fillColor=default;align=left;verticalAlign=middle;spacingLeft=4;spacingRight=4;overflow=hidden;points=[[0,0.5],[1,0.5]];portConstraint=eastwest;rotatable=0;whiteSpace=wrap;html=1;fontStyle=0;fontSize=15;fontFamily=Times New Roman;" vertex="1" parent="oW0wbC5lxCzP3JMt8ABT-39">
                    <mxGeometry y="90" width="140" height="30" as="geometry"/>
                </mxCell>
                <mxCell id="oW0wbC5lxCzP3JMt8ABT-43" value="date" style="text;strokeColor=none;fillColor=default;align=left;verticalAlign=middle;spacingLeft=4;spacingRight=4;overflow=hidden;points=[[0,0.5],[1,0.5]];portConstraint=eastwest;rotatable=0;whiteSpace=wrap;html=1;fontStyle=0;fontSize=15;fontFamily=Times New Roman;" vertex="1" parent="oW0wbC5lxCzP3JMt8ABT-39">
                    <mxGeometry y="120" width="140" height="30" as="geometry"/>
                </mxCell>
                <mxCell id="oW0wbC5lxCzP3JMt8ABT-44" value="rating" style="text;strokeColor=none;fillColor=default;align=left;verticalAlign=middle;spacingLeft=4;spacingRight=4;overflow=hidden;points=[[0,0.5],[1,0.5]];portConstraint=eastwest;rotatable=0;whiteSpace=wrap;html=1;fontStyle=0;fontSize=15;fontFamily=Times New Roman;" vertex="1" parent="oW0wbC5lxCzP3JMt8ABT-39">
                    <mxGeometry y="150" width="140" height="30" as="geometry"/>
                </mxCell>
                <mxCell id="oW0wbC5lxCzP3JMt8ABT-45" style="edgeStyle=orthogonalEdgeStyle;rounded=0;orthogonalLoop=1;jettySize=auto;html=1;exitX=0;exitY=0.5;exitDx=0;exitDy=0;entryX=0;entryY=0.5;entryDx=0;entryDy=0;" edge="1" parent="1" source="oW0wbC5lxCzP3JMt8ABT-13" target="oW0wbC5lxCzP3JMt8ABT-2">
                    <mxGeometry relative="1" as="geometry"/>
                </mxCell>
                <mxCell id="oW0wbC5lxCzP3JMt8ABT-46" style="edgeStyle=orthogonalEdgeStyle;rounded=0;orthogonalLoop=1;jettySize=auto;html=1;exitX=1;exitY=0.5;exitDx=0;exitDy=0;entryX=0;entryY=0.5;entryDx=0;entryDy=0;" edge="1" parent="1" source="oW0wbC5lxCzP3JMt8ABT-3" target="oW0wbC5lxCzP3JMt8ABT-19">
                    <mxGeometry relative="1" as="geometry">
                        <Array as="points">
                            <mxPoint x="570" y="295"/>
                            <mxPoint x="570" y="345"/>
                        </Array>
                    </mxGeometry>
                </mxCell>
                <mxCell id="oW0wbC5lxCzP3JMt8ABT-47" style="edgeStyle=orthogonalEdgeStyle;rounded=0;orthogonalLoop=1;jettySize=auto;html=1;exitX=1;exitY=0.5;exitDx=0;exitDy=0;entryX=0;entryY=0.5;entryDx=0;entryDy=0;" edge="1" parent="1" source="oW0wbC5lxCzP3JMt8ABT-3" target="oW0wbC5lxCzP3JMt8ABT-20">
                    <mxGeometry relative="1" as="geometry">
                        <Array as="points">
                            <mxPoint x="570" y="295"/>
                            <mxPoint x="570" y="375"/>
                        </Array>
                    </mxGeometry>
                </mxCell>
                <mxCell id="oW0wbC5lxCzP3JMt8ABT-48" style="edgeStyle=orthogonalEdgeStyle;rounded=0;orthogonalLoop=1;jettySize=auto;html=1;exitX=0;exitY=0.5;exitDx=0;exitDy=0;entryX=1;entryY=0.5;entryDx=0;entryDy=0;" edge="1" parent="1" source="oW0wbC5lxCzP3JMt8ABT-3" target="oW0wbC5lxCzP3JMt8ABT-25">
                    <mxGeometry relative="1" as="geometry"/>
                </mxCell>
                <mxCell id="oW0wbC5lxCzP3JMt8ABT-49" style="edgeStyle=orthogonalEdgeStyle;rounded=0;orthogonalLoop=1;jettySize=auto;html=1;exitX=0;exitY=0.5;exitDx=0;exitDy=0;entryX=1;entryY=0.5;entryDx=0;entryDy=0;" edge="1" parent="1" source="oW0wbC5lxCzP3JMt8ABT-3" target="oW0wbC5lxCzP3JMt8ABT-30">
                    <mxGeometry relative="1" as="geometry"/>
                </mxCell>
                <mxCell id="oW0wbC5lxCzP3JMt8ABT-50" style="edgeStyle=orthogonalEdgeStyle;rounded=0;orthogonalLoop=1;jettySize=auto;html=1;exitX=0;exitY=0.5;exitDx=0;exitDy=0;entryX=1;entryY=0.5;entryDx=0;entryDy=0;" edge="1" parent="1" source="oW0wbC5lxCzP3JMt8ABT-3" target="oW0wbC5lxCzP3JMt8ABT-36">
                    <mxGeometry relative="1" as="geometry"/>
                </mxCell>
                <mxCell id="oW0wbC5lxCzP3JMt8ABT-51" style="edgeStyle=orthogonalEdgeStyle;rounded=0;orthogonalLoop=1;jettySize=auto;html=1;exitX=0;exitY=0.5;exitDx=0;exitDy=0;entryX=0;entryY=0.5;entryDx=0;entryDy=0;" edge="1" parent="1" source="oW0wbC5lxCzP3JMt8ABT-29" target="oW0wbC5lxCzP3JMt8ABT-37">
                    <mxGeometry relative="1" as="geometry"/>
                </mxCell>
                <mxCell id="oW0wbC5lxCzP3JMt8ABT-52" style="edgeStyle=orthogonalEdgeStyle;rounded=0;orthogonalLoop=1;jettySize=auto;html=1;exitX=0;exitY=0.5;exitDx=0;exitDy=0;entryX=0;entryY=0.5;entryDx=0;entryDy=0;" edge="1" parent="1" source="oW0wbC5lxCzP3JMt8ABT-29" target="oW0wbC5lxCzP3JMt8ABT-26">
                    <mxGeometry relative="1" as="geometry"/>
                </mxCell>
                <mxCell id="oW0wbC5lxCzP3JMt8ABT-53" style="edgeStyle=orthogonalEdgeStyle;rounded=0;orthogonalLoop=1;jettySize=auto;html=1;exitX=0;exitY=0.5;exitDx=0;exitDy=0;entryX=0;entryY=0.5;entryDx=0;entryDy=0;" edge="1" parent="1" source="oW0wbC5lxCzP3JMt8ABT-3" target="oW0wbC5lxCzP3JMt8ABT-41">
                    <mxGeometry relative="1" as="geometry"/>
                </mxCell>
                <mxCell id="oW0wbC5lxCzP3JMt8ABT-54" style="edgeStyle=orthogonalEdgeStyle;rounded=0;orthogonalLoop=1;jettySize=auto;html=1;exitX=0;exitY=0.5;exitDx=0;exitDy=0;entryX=0;entryY=0.5;entryDx=0;entryDy=0;" edge="1" parent="1" source="oW0wbC5lxCzP3JMt8ABT-3" target="oW0wbC5lxCzP3JMt8ABT-42">
                    <mxGeometry relative="1" as="geometry"/>
                </mxCell>
            </root>
        </mxGraphModel>
    </diagram>
</mxfile>